Coordinates
version=1
nRows=49
nColumns=12
inDegrees=yes

Units are S.I. units (second, meters, Newtons, ...)
Angles are in degrees

endheader
time	SC_y	SC_z	SC_x	AC_y	AC_z	AC_x	GH_y	GH_z	GH_yy	EL_x	PS_y
       0.0              -42.82         -3.224          11.62          34.65         -17.07          8.207          121.6          76.03         -20.95          100.2          137.8
   0.04158              -42.81         -3.221          11.63          34.65         -17.07          8.204          121.6          76.02         -20.93          100.2          137.8
   0.08316              -42.81         -3.219          11.64          34.66         -17.08            8.2          121.5           76.0          -20.9          100.2          137.8
    0.1247              -42.81         -3.216          11.64          34.66         -17.08          8.196          121.5          75.99         -20.87          100.2          137.9
    0.1663              -42.81         -3.213          11.65          34.66         -17.08          8.192          121.5          75.98         -20.84          100.2          137.9
    0.2079               -42.8          -3.21          11.66          34.66         -17.08          8.187          121.5          75.97         -20.81          100.2          137.9
    0.2495               -42.8         -3.207          11.67          34.66         -17.08          8.182          121.5          75.95         -20.78          100.2          137.9
    0.2911              -42.79         -3.203          11.68          34.67         -17.08          8.177          121.5          75.94         -20.74          100.2          137.9
    0.3327              -42.79           -3.2          11.69          34.67         -17.08          8.172          121.5          75.92          -20.7          100.2          137.9
    0.3742              -42.78         -3.196           11.7          34.67         -17.08          8.166          121.5          75.91         -20.66          100.2          137.9
    0.4158              -42.78         -3.191          11.71          34.67         -17.08          8.159          121.4          75.89         -20.61          100.2          137.9
    0.4574              -42.77         -3.187          11.72          34.68         -17.08          8.152          121.4          75.87         -20.57          100.3          137.9
     0.499              -42.77         -3.182          11.74          34.68         -17.08          8.145          121.4          75.85         -20.51          100.3          137.9
    0.5406              -42.76         -3.176          11.75          34.68         -17.08          8.137          121.4          75.82         -20.46          100.3          137.9
    0.5821              -42.76          -3.17          11.77          34.69         -17.08          8.128          121.4           75.8         -20.39          100.3          137.9
    0.6237              -42.75         -3.164          11.79          34.69         -17.08          8.119          121.3          75.77         -20.33          100.3          137.9
    0.6653              -42.74         -3.157           11.8          34.69         -17.08          8.109          121.3          75.74         -20.26          100.3          137.9
    0.7069              -42.73         -3.149          11.82           34.7         -17.08          8.098          121.3          75.71         -20.18          100.3          137.9
    0.7485              -42.72         -3.141          11.85           34.7         -17.08          8.086          121.2          75.67         -20.09          100.3          137.9
      0.79              -42.71         -3.132          11.87          34.71         -17.08          8.072          121.2          75.63          -20.0          100.3          137.9
    0.8316               -42.7         -3.122           11.9          34.72         -17.08          8.058          121.2          75.59         -19.89          100.3          138.0
    0.8732              -42.69         -3.111          11.93          34.72         -17.08          8.042          121.1          75.55         -19.78          100.3          138.0
    0.9148              -42.67         -3.099          11.96          34.73         -17.08          8.024          121.1          75.49         -19.65          100.3          138.0
    0.9564              -42.66         -3.086           12.0          34.74         -17.08          8.004          121.0          75.44         -19.51          100.3          138.0
     0.998              -42.64         -3.071          12.04          34.75         -17.08          7.982          121.0          75.37         -19.36          100.3          138.0
      1.04              -42.62         -3.054          12.08          34.76         -17.09          7.958          120.9           75.3         -19.19          100.3          138.0
     1.081               -42.6         -3.036          12.13          34.77         -17.09          7.931          120.8          75.22         -18.99          100.3          138.0
     1.123              -42.58         -3.015          12.19          34.78         -17.09            7.9          120.7          75.13         -18.78          100.4          138.1
     1.164              -42.55         -2.991          12.26          34.79         -17.09          7.865          120.7          75.03         -18.53          100.4          138.1
     1.206              -42.52         -2.964          12.33          34.81         -17.09          7.826          120.5          74.92         -18.25          100.4          138.1
     1.247              -42.48         -2.934          12.41          34.83         -17.09          7.781          120.4          74.79         -17.93          100.4          138.1
     1.289              -42.44         -2.899          12.51          34.85          -17.1           7.73          120.3          74.64         -17.57          100.4          138.2
     1.331              -42.39         -2.858          12.62          34.88          -17.1           7.67          120.1          74.47         -17.14          100.5          138.2
     1.372              -42.34         -2.811          12.75           34.9          -17.1          7.601          119.9          74.27         -16.65          100.5          138.3
     1.414              -42.28         -2.756           12.9          34.94         -17.11           7.52          119.7          74.03         -16.08          100.5          138.3
     1.455               -42.2         -2.691          13.07          34.98         -17.11          7.425          119.5          73.75          -15.4          100.6          138.4
     1.497              -42.11         -2.614          13.29          35.02         -17.12          7.311          119.2          73.42          -14.6          100.6          138.5
     1.539               -42.0         -2.521          13.54          35.08         -17.12          7.175          118.8          73.03         -13.63          100.7          138.6
      1.58              -41.87         -2.409          13.84          35.15         -17.13          7.011          118.4          72.55         -12.47          100.7          138.7
     1.622              -41.72         -2.272          14.22          35.23         -17.14           6.81          117.8          71.97         -11.04          100.8          138.8
     1.663              -41.52         -2.103          14.68          35.33         -17.15          6.562          117.2          71.25         -9.284          100.9          139.0
     1.705              -41.28         -1.893          15.25          35.46         -17.16          6.253          116.3          70.35         -7.092          101.1          139.2
     1.746              -40.97         -1.627          15.97          35.62         -17.18          5.863          115.3          69.22         -4.329          101.2          139.5
     1.788              -40.58          -1.29          16.89          35.83          -17.2          5.368          114.0          67.78        -0.8174          101.5          139.9
      1.83              -40.08        -0.8584          18.07          36.09         -17.23          4.734          112.3          65.94          3.677          101.7          140.3
     1.871              -39.44        -0.3044          19.58          36.43         -17.27          3.921          110.1          63.58          9.446          102.1          140.9
     1.913              -38.62         0.4032          21.51          36.85         -17.31          2.882          107.3          60.56          16.81          102.5          141.6
     1.954              -37.59          1.293          23.93          37.39         -17.37          1.576          103.9          56.77          26.08          103.1          142.6
     1.996              -36.33          2.377          26.89          38.05         -17.44       -0.01551          99.61          52.15          37.37          103.8          143.7
